# xmcd CD database file
#
# Track frame offsets:
#	183
#	20483
#	44358
#	65308
#	92283
#	119583
#	135183
#	157008
#	180520
#	203883
#	239083
#	262483
#
# Disc length: 3719 seconds
#
# Revision: 1
# Processed by: cddbd v1.4PL0 Copyright (c) Steve Scherf et al.
# Submitted via: Feurio! 1.65 - http://www.feurio.com
#
DISCID=a80e850c
DTITLE=Simply Red - Simply the Best
DYEAR=1900
DGENRE=
TTITLE0=holding back the years
TTITLE1=come to my aid
TTITLE2=infedelity
TTITLE3=jericho
TTITLE4=sad old red
TTITLE5=if you don´t now be by now
TTITLE6=it´s only love
TTITLE7=money´s too tight to mention
TTITLE8=i won´t feel bad
TTITLE9=heaven
TTITLE10=the right thing
TTITLE11=ev´ry time we say goodbay
EXTD=
EXTT0=
EXTT1=
EXTT2=
EXTT3=
EXTT4=
EXTT5=
EXTT6=
EXTT7=
EXTT8=
EXTT9=
EXTT10=
EXTT11=
PLAYORDER=
